<svg width="512" height="512" viewBox="0 0 512 512" xmlns="http://www.w3.org/2000/svg">
  <defs>
    <linearGradient id="bg" x1="0" y1="0" x2="0" y2="1">
      <stop offset="0" stop-color="#4a3a7a"/>
      <stop offset="1" stop-color="#241945"/>
    </linearGradient>
    <radialGradient id="glow" cx="0.5" cy="0.42" r="0.62">
      <stop offset="0" stop-color="#5c4a94"/>
      <stop offset="1" stop-color="#2d2154"/>
    </radialGradient>
    <linearGradient id="amber" x1="0" y1="0" x2="0" y2="1">
      <stop offset="0" stop-color="#e6b25c"/>
      <stop offset="1" stop-color="#c68a34"/>
    </linearGradient>
    <filter id="sh" x="-25%" y="-25%" width="150%" height="150%">
      <feDropShadow dx="0" dy="7" stdDeviation="8" flood-color="#150e2e" flood-opacity="0.55"/>
    </filter>
  </defs>
  <rect x="26" y="26" width="460" height="460" rx="104" fill="url(#bg)"/><rect x="41" y="41" width="430" height="430" rx="90" fill="none" stroke="#c3b3ea" stroke-opacity="0.5" stroke-width="7"/><circle cx="256" cy="256" r="176" fill="url(#glow)" stroke="#c3b3ea" stroke-opacity="0.32" stroke-width="5"/>
  <!-- MOTIF -->
  <g transform="translate(256,266)" filter="url(#sh)">
    
    <path d="M -114 -6 q0 -50 50 -50 h128 q50 0 50 50 l 12 78 q8 44 -28 44 q-22 0 -32 -20 l -10 -20 h-118 l -10 20 q-10 20 -32 20 q-36 0 -28 -44 z"
      fill="#f2e9d8" stroke="#150e2e" stroke-width="8" stroke-linejoin="round"/>
    <g stroke="#150e2e" stroke-width="13" stroke-linecap="round">
      <line x1="-70" y1="-6" x2="-70" y2="34"/>
      <line x1="-90" y1="14" x2="-50" y2="14"/>
    </g>
    <circle cx="58" cy="-4" r="14" fill="url(#amber)"/>
    <circle cx="90" cy="18" r="14" fill="#150e2e" fill-opacity="0.55"/>
    <circle cx="26" cy="18" r="14" fill="#150e2e" fill-opacity="0.55"/>
    <circle cx="58" cy="40" r="14" fill="#150e2e" fill-opacity="0.4"/>
    <path d="M -20 -104 l 14 -28 l 14 28 z" fill="url(#amber)"/>
    
  </g>
</svg>