<svg width="512" height="512" viewBox="0 0 512 512" xmlns="http://www.w3.org/2000/svg">
  <defs>
    <linearGradient id="bg" x1="0" y1="0" x2="0" y2="1">
      <stop offset="0" stop-color="#155a70"/>
      <stop offset="1" stop-color="#0a3444"/>
    </linearGradient>
    <radialGradient id="glow" cx="0.5" cy="0.42" r="0.62">
      <stop offset="0" stop-color="#1d7185"/>
      <stop offset="1" stop-color="#0c3f51"/>
    </radialGradient>
    <filter id="sh" x="-25%" y="-25%" width="150%" height="150%">
      <feDropShadow dx="0" dy="7" stdDeviation="8" flood-color="#04222c" flood-opacity="0.55"/>
    </filter>
  </defs>

  <rect x="26" y="26" width="460" height="460" rx="104" fill="url(#bg)"/>
  <rect x="41" y="41" width="430" height="430" rx="90" fill="none" stroke="#8fd0dd" stroke-opacity="0.5" stroke-width="7"/>

  <circle cx="256" cy="256" r="176" fill="url(#glow)" stroke="#8fd0dd" stroke-opacity="0.32" stroke-width="5"/>

  <!-- ゲームパッド -->
  <g transform="translate(256,262)" filter="url(#sh)">
    <path d="M -142 -14
             q -14 82 24 106
             q 30 15 48 -20
             l 14 -24 h 108 l 14 24
             q 18 35 48 20
             q 38 -24 24 -106
             q -12 -74 -74 -74
             h -158
             q -62 0 -74 74 z"
          fill="#f2e9d8" stroke="#07303f" stroke-width="7"/>
    <!-- 十字キー -->
    <g fill="#0e4457">
      <rect x="-98" y="-14" width="64" height="22" rx="5"/>
      <rect x="-77" y="-35" width="22" height="64" rx="5"/>
    </g>
    <!-- ボタン -->
    <circle cx="58" cy="-20" r="17" fill="#d9a24a" stroke="#8a5f22" stroke-width="5"/>
    <circle cx="98" cy="14" r="17" fill="#8fd0dd" stroke="#2b6b78" stroke-width="5"/>
    <circle cx="58" cy="48" r="17" fill="#d9a24a" stroke="#8a5f22" stroke-width="5"/>
    <circle cx="18" cy="14" r="17" fill="#c9705a" stroke="#7d3a2c" stroke-width="5"/>
  </g>
</svg>
